<svg id="visual" viewBox="0 0 1600 900" width="1600" height="900" xmlns="http://www.w3.org/2000/svg" xmlns:xlink="http://www.w3.org/1999/xlink" version="1.1"><rect x="0" y="0" width="1600" height="900" fill="#faebcd"></rect><defs><linearGradient id="grad1_0" x1="43.8%" y1="0%" x2="100%" y2="100%"><stop offset="14.444444444444446%" stop-color="#faebcd" stop-opacity="1"></stop><stop offset="85.55555555555554%" stop-color="#faebcd" stop-opacity="1"></stop></linearGradient></defs><defs><linearGradient id="grad2_0" x1="0%" y1="0%" x2="56.3%" y2="100%"><stop offset="14.444444444444446%" stop-color="#faebcd" stop-opacity="1"></stop><stop offset="85.55555555555554%" stop-color="#faebcd" stop-opacity="1"></stop></linearGradient></defs><g transform="translate(1600, 0)"><path d="M0 540C-58.6 484.9 -117.2 429.8 -160.7 388C-204.3 346.2 -232.8 317.7 -294.9 294.9C-356.9 272 -452.5 254.8 -498.9 206.6C-545.3 158.5 -542.7 79.2 -540 0L0 0Z" fill="#fa8d70"></path></g><g transform="translate(0, 900)"><path d="M0 -540C48.3 -473.1 96.5 -406.3 158.8 -383.4C221.1 -360.5 297.4 -381.6 359.9 -359.9C422.4 -338.2 471.2 -273.8 498.9 -206.6C526.6 -139.5 533.3 -69.8 540 0L0 0Z" fill="#fa8d70"></path></g></svg>