<svg id="visual" viewBox="0 0 900 600" width="900" height="600" xmlns="http://www.w3.org/2000/svg" xmlns:xlink="http://www.w3.org/1999/xlink" version="1.1"><rect x="0" y="0" width="900" height="600" fill="#FFF5EC"></rect><defs><linearGradient id="grad1_0" x1="33.3%" y1="0%" x2="100%" y2="100%"><stop offset="20%" stop-color="#fff5ec" stop-opacity="1"></stop><stop offset="80%" stop-color="#fff5ec" stop-opacity="1"></stop></linearGradient></defs><defs><linearGradient id="grad2_0" x1="0%" y1="0%" x2="66.7%" y2="100%"><stop offset="20%" stop-color="#fff5ec" stop-opacity="1"></stop><stop offset="80%" stop-color="#fff5ec" stop-opacity="1"></stop></linearGradient></defs><g transform="translate(900, 0)"><path d="M0 351.5C-47 343 -94 334.4 -129 311.3C-164 288.3 -187 250.9 -221.3 221.3C-255.6 191.8 -301.2 170.1 -324.8 134.5C-348.4 99 -350 49.5 -351.5 0L0 0Z" fill="#FFBD83"></path></g><g transform="translate(0, 600)"><path d="M0 -351.5C38.4 -326.3 76.8 -301 118.2 -285.5C159.7 -270 204.1 -264.2 241.1 -241.1C278.1 -218 307.6 -177.6 324.8 -134.5C341.9 -91.5 346.7 -45.7 351.5 0L0 0Z" fill="#FFBD83"></path></g></svg>